# AST/ASF file generated using VICON BodyLanguage
# -----------------------------------------------
:version 1.10
:name VICON
:units
  mass 1.0
  length 0.45
  angle deg
:documentation
   .ast/.asf automatically generated from VICON data using
   VICON BodyBuilder and BodyLanguage model FoxedUp or BRILLIANT.MOD
:root
   order TX TY TZ RX RY RZ
   axis XYZ
   position 0 0 0  
   orientation 0 0 0 
:bonedata
  begin
     id 1 
     name lhipjoint
     direction 0.576517 -0.752066 0.319413 
     length 2.45433 
     axis 0 0 0  XYZ
  end
  begin
     id 2 
     name lfemur
     direction 0.34202 -0.939693 0  
     length 7.54459  
     axis 0 0 20  XYZ
    dof rx ry rz
    limits (-160.0 20.0)
           (-70.0 70.0)
           (-60.0 70.0)
  end
  begin
     id 3 
     name ltibia
     direction 0.34202 -0.939693 0   
     length 7.73986   
     axis 0 0 20   XYZ
    dof rx
    limits (-10.0 170.0)
  end
  begin
     id 4 
     name lfoot
     direction 0.090693 -0.249177 0.964202   
     length 2.28437   
     axis -90 7.62852e-016 20   XYZ
    dof rx rz
    limits (-45.0 90.0)
           (-70.0 20.0)
  end
  begin
     id 5 
     name ltoes
     direction 1.5356e-011 -4.21928e-011 1   
     length 1.14243   
     axis -90 7.62852e-016 20   XYZ
    dof rx
    limits (-90.0 20.0)
  end
  begin
     id 6 
     name rhipjoint
     direction -0.573937 -0.753736 0.320122   
     length 2.44889  
     axis 0 0 0  XYZ 
  end
  begin
     id 7 
     name rfemur
     direction -0.34202 -0.939693 0   
     length 7.50166   
     axis 0 0 -20   XYZ
    dof rx ry rz
    limits (-160.0 20.0)
           (-70.0 70.0)
           (-70.0 60.0)
  end
  begin
     id 8 
     name rtibia
     direction -0.34202 -0.939693 0   
     length 7.54266   
     axis 0 0 -20   XYZ
    dof rx
    limits (-10.0 170.0)
 end
 begin
     id 9 
     name rfoot
     direction -0.114017 -0.31326 0.942798   
     length 2.34212  
     axis -90 -7.62852e-016 -20   XYZ
    dof rx rz
    limits (-45.0 90.0)
           (-20.0 70.0)
  end
  begin
     id 10 
     name rtoes
     direction -1.53557e-011 -4.21867e-011 1   
     length 1.16246   
     axis -90 -7.62852e-016 -20   XYZ
    dof rx
    limits (-90.0 20.0)
  end
  begin
     id 11 
     name lowerback
     direction -0.0228371 0.999155 -0.034167   
     length 2.0537   
     axis 0 0 0   XYZ
    dof rx ry rz
    limits (-20.0 45.0)
           (-30.0 30.0)
           (-30.0 30.0)
  end
  begin
     id 12 
     name upperback
     direction 0.0198981 0.999794 0.00389455   
     length 2.05302   
     axis 0 0 0   XYZ
    dof rx ry rz
    limits (-20.0 45.0)
           (-30.0 30.0)
           (-30.0 30.0)
  end
  begin
     id 13 
     name thorax
     direction 0.0304566 0.99935 0.0192987   
     length 2.05315   
     axis 0 0 0   XYZ
    dof rx ry rz
    limits (-20.0 45.0)
           (-30.0 30.0)
           (-30.0 30.0)
  end
  begin
     id 14 
     name lowerneck
     direction -0.0196762 0.99417 0.106017   
     length 1.82056   
     axis 0 0 0   XYZ
    dof rx ry rz
    limits (-20.0 45.0)
           (-30.0 30.0)
           (-30.0 30.0)
  end
  begin
     id 15 
     name upperneck
     direction 0.00517787 0.9802 -0.197944   
     length 1.83835   
     axis 0 0 0   XYZ
    dof rx ry rz
    limits (-20.0 45.0)
           (-30.0 30.0)
           (-30.0 30.0)
  end
  begin
     id 16
     name head
     direction 0.00211419 0.996945 -0.078081  
     length 1.85629  
     axis 0 0 0   XYZ
    dof rx ry rz
    limits (-20.0 45.0)
           (-30.0 30.0)
           (-30.0 30.0)
  end
  begin
     id 17 
     name lclavicle
     direction 0.930001 0.365811 -0.0357824  
     length 3.81961  
     axis 0 0 0   XYZ
    dof ry rz
    limits (-20.0 10.0)
           (0.0 20.0)
  end
  begin
     id 18 
     name lhumerus
     direction 1 -4.48968e-011 -3.06644e-027   
     length 5.14507   
     axis 180 -30 -90   XYZ
    dof rx ry rz
    limits (-60.0 90.0)
           (-90.0 90.0)
           (-90.0 90.0)
  end
  begin
     id 19
     name lradius
     direction 1 -4.48965e-011 9.06925e-028   
     length 3.50646   
     axis 180 -30 -90   XYZ
    dof rx
    limits (-10.0 170.0)
  end
  begin
     id 20
     name lwrist
     direction 1 -4.48957e-011 1.03922e-027   
     length 1.75323   
     axis -2.56395e-016 90 90   XYZ
    dof ry
    limits (-180.0 0.0)
 end
  begin
     id 21 
     name lhand
     direction 1 -4.48967e-011 2.08017e-027   
     length 0.629969   
     axis -1.32723e-015 90 90   XYZ
    dof rx rz
    limits (-90.0 90.0)
           (-45.0 45.0)
  end
  begin
     id 22 
     name lfingers
     direction 1 -4.49089e-011 4.20095e-027   
     length 0.507897   
     axis -2.6545e-015 90 90   XYZ
    dof rx
    limits (0.0 90.0)
  end
  begin
     id 23
     name lthumb
     direction 0.707107 -6.35001e-011 0.707107   
     length 0.729241   
     axis -90 45 5.05613e-014   XYZ
    dof rx rz
    limits (-45.0 45.0)
           (-45.0 45.0)
  end
  begin
     id 24 
     name rclavicle
     direction -0.881882 0.464123 -0.0829113   
     length 3.47515  
     axis 0 0 0   XYZ 
    dof ry rz
    limits (-10.0 20.0)
           (-20.0 0.0)
  end
  begin
     id 25 
     name rhumerus
     direction -1 -4.48961e-011 -1.55672e-027  
     length 5.232   
     axis 180 30 90   XYZ
    dof rx ry rz
    limits (-90.0 60.0)
           (-90.0 90.0)
           (-90.0 90.0)
  end
  begin
     id 26 
     name rradius
     direction -1 -4.48963e-011 6.18178e-029   
     length 3.65641   
     axis 180 30 90   XYZ
    dof rx
    limits (-10.0 170.0)
  end
  begin
     id 27 
     name rwrist
     direction -1 -4.48982e-011 1.04136e-027   
     length 1.8282   
     axis -2.56395e-016 -90 -90   XYZ
    dof ry
    limits (-180.0 0.0)
  end
  begin
     id 28
     name rhand
     direction -1 -4.48929e-011 2.07378e-027   
     length 0.656807   
     axis -1.32723e-015 -90 -90   XYZ
    dof rx rz
    limits (-90.0 90.0)
           (-45.0 45.0)
  end
  begin
     id 29
     name rfingers
     direction -1 -4.489e-011 4.13816e-027   
     length 0.529535   
     axis -2.6545e-015 -90 -90   XYZ
    dof rx
    limits (0.0 90.0)
  end
  begin
     id 30
     name rthumb
     direction -0.707107 -6.34843e-011 0.707107   
     length 0.760309   
     axis -90 -45 -5.05613e-014   XYZ
    dof rx rz
    limits (-45.0 45.0)
           (-45.0 45.0)
  end
:hierarchy
  begin
    root lhipjoint rhipjoint lowerback
    lhipjoint lfemur
    lfemur ltibia
    ltibia lfoot
    lfoot ltoes
    rhipjoint rfemur
    rfemur rtibia
    rtibia rfoot
    rfoot rtoes
    lowerback upperback
    upperback thorax
    thorax lowerneck lclavicle rclavicle
    lowerneck upperneck
    upperneck head
    lclavicle lhumerus
    lhumerus lradius
    lradius lwrist
    lwrist lhand lthumb
    lhand lfingers
    rclavicle rhumerus
    rhumerus rradius
    rradius rwrist
    rwrist rhand rthumb
    rhand rfingers
  end

#!OML:ASF H:\ManfredETheater\Project 1\Capture day 1\Session 1\subject.ASF
:FULLY-SPECIFIED
:DEGREES
31
root -11.8917 16.2537 24.9389 -159.651 -1.36218 -195.973
lowerback 13.5759 -3.0664 -6.28035
upperback -0.912889 -5.4257 -1.76345
thorax -8.20556 -2.46121 2.74323
lowerneck -21.8643 -2.47163 -4.26768
upperneck 2.16865 -1.68649 1.14745
head 4.10792 -0.569332 0.893269
rclavicle 5.96354e-014 8.74653e-015
rhumerus -78.9546 -0.344219 -76.324
rradius 70.5823
rwrist -12.5088
rhand -26.6207 10.557
rfingers 7.12502
rthumb -0.0537905 -19.4228
lclavicle 5.96354e-014 8.74653e-015
lhumerus -32.8233 -20.0299 98.1435
lradius 137.02
lwrist 15.8831
lhand -21.1019 -13.1779
lfingers 7.12502
lthumb 5.27597 16.7365
rfemur -71.1505 -5.47176 16.5717
rtibia 57.3155
rfoot -10.9735 -5.02346
rtoes -40.3235
lfemur 4.49781 -6.78908 -30.9588
ltibia 33.3611
lfoot 14.3078 -16.9421
ltoes -6.40328
32
root -11.8764 16.2566 24.3616 -160.149 -1.24996 -196.391
lowerback 13.6286 -3.00877 -6.57107
upperback -0.815665 -5.42122 -1.88143
thorax -8.11792 -2.46109 2.77861
lowerneck -21.9729 -2.46625 -4.30155
upperneck 2.29293 -1.65981 1.05657
head 4.16145 -0.565048 0.871524
rclavicle 1.70955e-014 3.26007e-014
rhumerus -78.967 -0.755994 -76.2103
rradius 70.7642
rwrist -12.8374
rhand -26.6729 10.455
rfingers 7.12502
rthumb -0.104191 -19.5247
lclavicle 1.70955e-014 3.26007e-014
lhumerus -33.6789 -19.5461 98.0084
lradius 136.391
lwrist 16.1149
lhand -21.0961 -12.918
lfingers 7.12502
lthumb 5.28151 16.9962
rfemur -70.3058 -5.65645 17.1599
rtibia 52.9484
rfoot -8.98486 -3.89477
rtoes -39.9887
lfemur 5.23379 -8.15577 -31.3911
ltibia 35.5338
lfoot 12.8291 -15.4282
ltoes -7.79755
33
root -11.8602 16.2474 23.7879 -160.649 -1.2579 -196.816
lowerback 13.6906 -2.95372 -6.84197
upperback -0.702165 -5.41668 -1.99351
thorax -8.01904 -2.46298 2.80929
lowerneck -21.9755 -2.50772 -4.37977
upperneck 2.31303 -1.69005 1.01887
head 4.16916 -0.583483 0.868921
rclavicle 3.33958e-014 1.66979e-014
rhumerus -78.834 -1.30148 -76.062
rradius 70.9263
rwrist -13.1548
rhand -26.6909 10.354
rfingers 7.12502
rthumb -0.121558 -19.6257
lclavicle 3.33958e-014 1.66979e-014
lhumerus -34.5651 -18.9078 97.9274
lradius 135.397
lwrist 16.5743
lhand -20.9744 -12.6277
lfingers 7.12502
lthumb 5.39911 17.2835
rfemur -69.3559 -6.04317 17.8931
rtibia 48.9666
rfoot -6.64935 -2.87961
rtoes -39.0898
lfemur 5.52374 -9.17002 -31.6909
ltibia 38.5119
lfoot 11.2523 -13.7388
ltoes -8.86294
34
root -11.8412 16.2283 23.2171 -161.148 -1.37559 -197.209
lowerback 13.7574 -2.89566 -7.08251
upperback -0.583036 -5.40064 -2.08854
thorax -7.91868 -2.46025 2.8392
lowerneck -21.8593 -2.59382 -4.5018
upperneck 2.25051 -1.77894 1.04001
head 4.13613 -0.62646 0.887011
rclavicle 0 4.05521e-014
rhumerus -78.5755 -1.96617 -75.8962
rradius 71.0504
rwrist -13.5116
rhand -26.6785 10.2337
rfingers 7.12502
rthumb -0.109604 -19.7461
lclavicle 0 4.05521e-014
lhumerus -35.4902 -18.131 97.9
lradius 134.048
lwrist 17.0833
lhand -20.8338 -12.3282
lfingers 7.12502
lthumb 5.53477 17.5795
rfemur -68.3443 -6.60521 18.8215
rtibia 45.5034
rfoot -4.13839 -2.03775
rtoes -37.342
lfemur 5.42242 -9.85638 -31.7665
ltibia 42.0948
lfoot 9.95391 -12.1315
ltoes -9.45126
35
root -11.8174 16.202 22.6473 -161.659 -1.59609 -197.535
lowerback 13.8338 -2.83262 -7.28449
upperback -0.463109 -5.36844 -2.15992
thorax -7.82533 -2.44988 2.87049
lowerneck -21.6414 -2.71716 -4.65797
upperneck 2.15886 -1.92285 1.12018
head 4.08172 -0.6944 0.924516
rclavicle -1.15295e-014 7.15625e-015
rhumerus -78.2055 -2.71766 -75.7445
rradius 71.1209
rwrist -13.96
rhand -26.6421 10.0832
rfingers 7.12502
rthumb -0.0744031 -19.8966
lclavicle -1.15295e-014 7.15625e-015
lhumerus -36.4536 -17.2304 97.9093
lradius 132.357
lwrist 17.472
lhand -20.7587 -12.0405
lfingers 7.12502
lthumb 5.60733 17.8653
rfemur -67.3005 -7.33004 19.9847
rtibia 42.7101
rfoot -1.63634 -1.34003
rtoes -34.1503
lfemur 4.98801 -10.2635 -31.5608
ltibia 46.0836
lfoot 8.99212 -10.9058
ltoes -9.62947
36
root -11.7872 16.1697 22.0786 -162.194 -1.90562 -197.773
lowerback 13.9406 -2.76253 -7.4519
upperback -0.35205 -5.31995 -2.20478
thorax -7.76063 -2.43002 2.91024
lowerneck -21.3359 -2.87018 -4.82911
upperneck 2.07871 -2.11883 1.25208
head 4.02077 -0.788038 0.976327
rclavicle 7.55382e-015 2.38542e-015
rhumerus -77.7302 -3.52705 -75.6321
rradius 71.1096
rwrist -14.5237
rhand -26.6173 9.85917
rfingers 7.12502
rthumb -0.0504909 -20.1206
lclavicle 7.55382e-015 2.38542e-015
lhumerus -37.4518 -16.2132 97.9237
lradius 130.345
lwrist 17.6248
lhand -20.8067 -11.7745
lfingers 7.12502
lthumb 5.56095 18.1326
rfemur -66.2518 -8.20733 21.4149
rtibia 40.7383
rfoot 0.518735 -0.973902
rtoes -29.1389
lfemur 4.2652 -10.4423 -31.044
ltibia 50.3248
lfoot 8.24521 -10.1918
ltoes -9.52207
37
root -11.7492 16.133 21.5113 -162.762 -2.27958 -197.908
lowerback 14.097 -2.68096 -7.58948
upperback -0.252755 -5.25289 -2.22589
thorax -7.73876 -2.39866 2.95911
lowerneck -20.9802 -3.04544 -4.99622
upperneck 2.05083 -2.36111 1.42942
head 3.97135 -0.906001 1.03777
rclavicle -3.97569e-015 -1.74931e-014
rhumerus -77.1433 -4.36474 -75.591
rradius 71.0016
rwrist -15.2148
rhand -26.6133 9.57414
rfingers 7.12502
rthumb -0.0465879 -20.4056
lclavicle -3.97569e-015 -1.74931e-014
lhumerus -38.4609 -15.0871 97.8944
lradius 128.035
lwrist 17.5108
lhand -20.9826 -11.5392
lfingers 7.12502
lthumb 5.39116 18.3723
rfemur -65.2219 -9.157 23.0201
rtibia 39.7164
rfoot 1.8958 -0.859325
rtoes -22.4025
lfemur 3.29029 -10.4339 -30.2084
ltibia 54.6955
lfoot 7.66325 -9.89393
ltoes -8.91873
38
root -11.7022 16.0929 20.9474 -163.371 -2.69143 -197.943
lowerback 14.3393 -2.58314 -7.71011
upperback -0.167499 -5.1686 -2.22924
thorax -7.78215 -2.3552 3.02055
lowerneck -20.6093 -3.23864 -5.1389
upperneck 2.09307 -2.64512 1.63544
head 3.9438 -1.04678 1.10055
rclavicle 7.99114e-014 2.22639e-014
rhumerus -76.4305 -5.20502 -75.6425
rradius 70.7812
rwrist -16.0194
rhand -26.6516 9.25166
rfingers 7.12502
rthumb -0.0835757 -20.7281
lclavicle 7.99114e-014 2.22639e-014
lhumerus -39.4496 -13.861 97.7742
lradius 125.451
lwrist 17.189
lhand -21.2499 -11.31
lfingers 7.12502
lthumb 5.13301 18.6078
rfemur -64.2179 -10.0518 24.6201
rtibia 39.6995
rfoot 2.35732 -1.16175
rtoes -14.058
lfemur 2.08152 -10.2722 -29.071
ltibia 59.1099
lfoot 7.11302 -9.8451
ltoes -8.09839
39
root -11.6464 16.0488 20.3894 -164.032 -3.11179 -197.881
lowerback 14.698 -2.46257 -7.81735
upperback -0.0889157 -5.06369 -2.21999
thorax -7.90063 -2.29806 3.09185
lowerneck -20.2566 -3.45293 -5.25283
upperneck 2.19497 -2.97044 1.86452
head 3.9397 -1.20881 1.16204
rclavicle 1.82882e-014 1.59028e-015
rhumerus -75.5521 -6.03665 -75.7984
rradius 70.4298
rwrist -16.9144
rhand -26.7592 8.88606
rfingers 7.12502
rthumb -0.187544 -21.0936
lclavicle 1.82882e-014 1.59028e-015
lhumerus -40.3751 -12.5444 97.525
lradius 122.622
lwrist 16.7647
lhand -21.5357 -11.0873
lfingers 7.12502
lthumb 4.85714 18.837
rfemur -63.1997 -10.7491 26.0286
rtibia 40.634
rfoot 1.88696 -2.05215
rtoes -5.24436
lfemur 0.659043 -9.982 -27.6636
ltibia 63.5065
lfoot 6.50422 -9.82945
ltoes -7.23229
40
root -11.5828 16.0001 19.8401 -164.739 -3.49949 -197.673
lowerback 15.1715 -2.31242 -7.85982
upperback -0.00749623 -4.91817 -2.19062
thorax -8.08827 -2.21965 3.14735
lowerneck -19.9415 -3.69185 -5.34222
upperneck 2.32152 -3.33465 2.11246
head 3.9511 -1.3887 1.22179
rclavicle -1.11319e-014 1.19271e-014
rhumerus -74.4636 -6.84942 -76.066
rradius 69.9397
rwrist -17.8703
rhand -26.9456 8.4933
rfingers 7.12502
rthumb -0.367569 -21.4861
lclavicle -1.11319e-014 1.19271e-014
lhumerus -41.1975 -11.1534 97.1265
lradius 119.577
lwrist 16.3588
lhand -21.773 -10.8478
lfingers 7.12502
lthumb 4.62798 19.0816
rfemur -62.0756 -11.1049 27.1748
rtibia 42.2596
rfoot 0.64161 -3.54998
rtoes 2.66756
lfemur -0.98126 -9.55455 -25.97
ltibia 67.802
lfoot 5.72762 -9.67264
ltoes -6.572
41
root -11.5141 15.9464 19.3018 -165.471 -3.813 -197.246
lowerback 15.7203 -2.13418 -7.75245
upperback 0.0845756 -4.70922 -2.1242
thorax -8.32082 -2.11281 3.14884
lowerneck -19.6572 -3.95729 -5.42061
upperneck 2.41717 -3.73272 2.37925
head 3.9599 -1.58173 1.28277
rclavicle 2.46493e-014 -8.74653e-015
rhumerus -73.1197 -7.62179 -76.4501
rradius 69.3141
rwrist -18.8518
rhand -27.2095 8.08181
rfingers 7.12502
rthumb -0.622454 -21.897
lclavicle 2.46493e-014 -8.74653e-015
lhumerus -41.8895 -9.6847 96.569
lradius 116.35
lwrist 16.0742
lhand -21.9025 -10.6394
lfingers 7.12502
lthumb 4.50293 19.2927
rfemur -60.8695 -11.0222 28.1128
rtibia 44.4543
rfoot -1.20232 -5.58343
rtoes 8.62925
lfemur -2.88881 -8.97296 -23.9526
ltibia 72.0241
lfoot 4.67046 -9.28419
ltoes -6.21495
